# xmcd
#
# Track frame offsets:
#	150
#	13982
#	25604
#	34990
#	55380
#	65736
#	78051
#	90039
#	109270
#	123139
#	132792
#	148671
#	163646
#	175702
#	187114
#	199266
#	208681
#	222245
#	236183
#	249321
#	260570
#	273263
#	285145
#	296184
#	309755
#
# Disc length: 4294 seconds
#
# Revision: 1
# Processed by: cddbd v1.5.1PL0 Copyright (c) Steve Scherf et al.
# Submitted via: audiograbber 1.80
#
DISCID=6810c419
DTITLE=Marks and Spencer - Easy Listening CD2
DYEAR=1900
DGENRE=
TTITLE0=Vince Hill - Edelweiss
TTITLE1=Andy Williams - Music To Watch Girls By
TTITLE2=Doris Day - Whatever Will Be, Will Be(Que Sera, Sera)
TTITLE3=Tony Bennett - The Very Thought Of You
TTITLE4=Connie Francis - Who's Sorry Now
TTITLE5=Vic Damone - On The Street Where You Live
TTITLE6=Brenda Lee - I'm Sorry
TTITLE7=James Last - Moon River
TTITLE8=Tom Jones - Green Green Grass Of Home
TTITLE9=Frankie Laine - I Believe
TTITLE10=Mantovani and His Orchestra - Some Enchanted Evening
TTITLE11=Engelbert Humperdinck - Release Me
TTITLE12=Vera Lynn - My Son, My Son
TTITLE13=Rosemary Clooney - Mambo Italiano
TTITLE14=Chris Montez - The More I See You
TTITLE15=The Batchelors - I Believe
TTITLE16=Ron Goodwin - Limelight
TTITLE17=Liza Minnelli - All That Jazz
TTITLE18=Robert Goulet - If I Ruled The World
TTITLE19=Johnnie Ray - Yes Tonight, Josephine
TTITLE20=Shirley Bassey - Goldfinger
TTITLE21=Andre Kostelanetz - You Do Something To Me
TTITLE22=Mitch Miller and His Orchestra - March From The River Kwai/Colonel Bogey
TTITLE23=Glenn Miller Orchestra - Pennsylvania 6-5000
TTITLE24=Stanley Holloway - Get Me To The Church On Time
EXTD=
EXTT0=
EXTT1=
EXTT2=
EXTT3=
EXTT4=
EXTT5=
EXTT6=
EXTT7=
EXTT8=
EXTT9=
EXTT10=
EXTT11=
EXTT12=
EXTT13=
EXTT14=
EXTT15=
EXTT16=
EXTT17=
EXTT18=
EXTT19=
EXTT20=
EXTT21=
EXTT22=
EXTT23=
EXTT24=
PLAYORDER=
